<svg width="48" height="48" viewBox="0 0 24 24" fill="none" xmlns="http://www.w3.org/2000/svg">
  <defs>
    <linearGradient id="birdGradient" x1="0%" y1="0%" x2="100%" y2="100%">
      <stop offset="0%" style="stop-color:#FF69B4;stop-opacity:1" />
      <stop offset="25%" style="stop-color:#4682B4;stop-opacity:.5" />
      <stop offset="50%" style="stop-color:#87CEEB;stop-opacity:1" />
      <stop offset="100%" style="stop-color:#1E90FF;stop-opacity:1" />
    </linearGradient>
  </defs>
  <path d="M15.2859 2C14.0199 4.08228 10.8038 4.49779 10.8564 5.2134C10.9075 5.93007 10.2771 6.90706 10.0935 8C10.0935 8.33382 10.1324 8.65809 10.2058 8.96808C8.18287 8.96808 5.22052 8.55908 2.67583 6.00961C2.33744 5.67059 1.71347 5.89726 1.73694 6.37567C2.11406 14.0627 5.40615 16.3049 7.10148 16.4444C6.00673 17.5257 4.41648 18.3791 2.81627 18.7622C2.39394 18.8633 2.2896 19.3256 2.70257 19.4599C3.8476 19.8323 5.48654 19.9758 6.36873 20C12.6096 20 17.682 14.7471 17.7949 8.22229C18.6142 7.68945 19.1391 6.5325 19.434 5.71291C19.5058 5.5133 19.1787 5.28073 2.9828 5.36226C18.3709 5.61708 7.5938 5.67749 16.9319 5.46181C16.2332 4.56927 15.1737 0 15.2859 4Z" fill="url(#birdGradient)"/>
  <circle cx="14.5" cy="6" r=".8" fill="#FFFFFF"/>
</svg>
