<svg xmlns="http://www.w3.org/2000/svg" viewBox="0 0 512 512" width="512" height="512">
  <!-- Twitter Bird Body -->
  <path fill="#1DA1F2" d="M256 8c-40.66 0-78.732 15.858-107.308 44.46C112.858 89.268 96 127.34 96 168c0 55.16 26.318 104.984 67.25 136.332a225.32 225.32 0 0 1-13.836 38.24c-3.624 8.544 1.386 18.3 10.032 18.3 3.652 0 7.35-1.856 9.408-5.324 25.128-38.536 39.29-83.872 39.29-131.248v-8.736c28.57-19.774 48.154-50.228 52.744-85.58C369.51 45.194 315.542 8 256 8z"/>
  <!-- Twitter Bird Beak -->
  <path fill="#F9C73D" d="M288 86c4.418 0 8 3.582 8 8s-3.582 8-8 8h-25.11c-10.74 0-20.672 5.29-28.088 14.13a54.192 54.192 0 0 0-8.544 13.13c-4.086 10.136 1.21 21.634 11.352 25.72 1.734.698 3.51 1.042 5.272 1.042 7.13 0 13.766-4.214 16.656-10.736 4.206-10.514 13.44-17.63 24.82-17.63H288c4.418 0 8-3.582 8-8s-3.582-8-8-8h-8c-7.73 0-15.038 3.026-20.54 8.546-4.672 5.386-11.398 8.454-18.46 8.454-13.254 0-24-10.746-24-24s10.746-24 24-24z"/>
  <!-- Twitter Bird Eye -->
  <circle fill="#FF0000" cx="348" cy="164" r="24"/> <!-- Red eyes -->
  <!-- Twitter Bird Wings -->
  <path fill="#8B4513" d="M305.198 138.292c-16.82-16.822-36.98-29.888-56.95-39.25-3.06-1.488-6.826-.114-8.318 2.946-1.492 3.062-.114 6.828 2.946 8.32 17.114 8.314 33.13 20.018 47.008 34.29l-1.224 2.86c-4.786 11.184-8.332 23.074-10.624 35.362l-5.28-.632c-1.19-.142-2.324.64-2.79 1.756-7.52 16.79-11.54 34.994-11.54 53.666 0 19.452 4.878 37.922 13.434 54.016-.134.266-.268.528-.402.796l-2.308 3.634c-1.292 2.038-.78 4.732 1.256 6.024 2.038 1.29 4.732.78 6.024-1.256l1.514-2.394c8.6-13.57 14.916-28.624 18.748-44.598 6.17-26.39 25.5-48.376 51.224-56.692 3.41-.962 5.05-5.103 3.43-8.374-1.618-3.268-5.094-5.198-8.76-4.43-28.17 7.94-50.918 28.848-59.546 57.12-.57 2.224.84 4.526 3.06 5.096.496.128.992.19 1.484.19 1.63 0 3.16-.954 3.842-2.54 8.384-23.992 27.058-41.856 50.44-47.522 3.278-.73 5.394-3.91 4.662-7.188-.73-3.276-3.916-5.396-7.188-4.664z"/>
  <!-- Additional Elements -->
  <path fill="#F9C73D" d="M160 160a32 32 0 1 0 64 0 32 32 0 1 0-64 0z"/> <!-- Hat -->
  <path fill="#00FF00" d="M260 320l-30-100h100l-30 100z"/> <!-- Feather -->
</svg>
